<svg width="7" height="11" viewBox="0 0 7 11" fill="none" xmlns="http://www.w3.org/2000/svg">
<path d="M3.57598 10.144C3.07998 10.144 2.70798 10.016 2.45998 9.76C2.21198 9.496 2.08798 9.144 2.08798 8.704C2.08798 8.568 2.09598 8.436 2.11198 8.308C2.12798 8.18 2.15998 7.992 2.20798 7.744L2.68798 5.176H0.815979L1.04398 3.808H4.69198L3.76798 8.728L3.97198 8.788L5.65198 7.072L6.61198 7.924L5.87998 8.764C5.47198 9.22 5.08798 9.564 4.72798 9.796C4.37598 10.028 3.99198 10.144 3.57598 10.144ZM4.09198 3.16L3.05998 2.608L4.43998 0.328003L5.80798 1.048L4.09198 3.16Z" fill="#8381B9"/>
</svg>
