<svg width="40" height="46" viewBox="0 0 40 46" fill="none" xmlns="http://www.w3.org/2000/svg">
<path d="M28.562 22.9744L30.962 19.7744L30.7771 19.6358L30.5775 19.5193L28.562 22.9744ZM29.9454 24.012L31.8998 27.502L37.2618 24.4993L32.3454 20.812L29.9454 24.012ZM21.299 28.854L23.2042 32.3711L23.2289 32.3577L23.2534 32.344L21.299 28.854ZM12.9985 33.3501L14.8809 36.8795L14.8923 36.8734L14.9036 36.8672L12.9985 33.3501ZM7.81069 36.1169L5.92834 32.5875L5.65684 32.7323L5.41069 32.9169L7.81069 36.1169ZM6.42727 37.1545L2.44925 36.7357L1.48899 45.8582L8.82727 40.3545L6.42727 37.1545ZM7.81069 24.012L11.7887 24.4307L11.8107 24.2219V24.012H7.81069ZM7.81069 9.4861H11.8107V7.4861L10.2107 6.2861L7.81069 9.4861ZM6.42727 8.44853L8.82727 5.24853L2.98785 10.4907L6.42727 8.44853ZM12.9985 19.5159L9.55909 21.558L10.2361 22.6982L11.4601 23.2082L12.9985 19.5159ZM21.299 22.9744L24.1275 20.146L23.5679 19.5865L22.8375 19.2821L21.299 22.9744ZM23.3742 25.0496L24.3443 28.9301L31.1981 27.2167L26.2026 22.2211L23.3742 25.0496ZM15.0736 27.1247L14.1035 23.2441L13.4313 23.4122L12.8548 23.7965L15.0736 27.1247ZM10.9234 29.8915L8.70458 26.5633L7.95618 27.0623L7.49341 27.8335L10.9234 29.8915ZM8.84826 33.3501L5.01695 32.2007L12.2782 35.4081L8.84826 33.3501ZM11.9609 22.9744L15.7923 24.1238L16.1371 22.9744L15.7923 21.825L11.9609 22.9744ZM10.9234 19.5159L13.7518 16.6875L7.09208 20.6653L10.9234 19.5159ZM8.00629 4.29895C8.00666 2.08981 6.2161 0.298646 4.00696 0.298275C1.79782 0.297903 0.00665967 2.08846 0.0062878 4.2976L8.00629 4.29895ZM5.66738e-08 41.65C-0.00037182 43.8591 1.79019 45.6503 3.99933 45.6507C6.20847 45.651 7.99963 43.8605 8 41.6513L5.66738e-08 41.65ZM6.20616 0.550337C4.30096 -0.567931 1.84996 0.0700014 0.731695 1.9752C-0.386573 3.88039 0.251359 6.3314 2.15656 7.44966L6.20616 0.550337ZM33.9752 26.1258C35.8804 27.2441 38.3314 26.6062 39.4497 24.701C40.5679 22.7958 39.93 20.3448 38.0248 19.2265L33.9752 26.1258ZM38.0248 26.7224C39.93 25.6041 40.5679 23.1531 39.4497 21.2479C38.3314 19.3427 35.8804 18.7048 33.9752 19.823L38.0248 26.7224ZM2.15655 38.4992C0.251358 39.6175 -0.386574 42.0685 0.731693 43.9737C1.84996 45.8789 4.30096 46.5168 6.20616 45.3985L2.15655 38.4992ZM5.79521 14.3246L5.87788 14.3729L9.90885 7.46263L9.82617 7.4144L5.79521 14.3246ZM5.87788 14.3729L26.5465 26.4296L30.5775 19.5193L9.90885 7.46263L5.87788 14.3729ZM26.162 26.1744L27.5454 27.212L32.3454 20.812L30.962 19.7744L26.162 26.1744ZM27.991 20.522L19.3446 25.3639L23.2534 32.344L31.8998 27.502L27.991 20.522ZM19.3939 25.3368L11.0934 29.8329L14.9036 36.8672L23.2042 32.3711L19.3939 25.3368ZM11.1162 29.8207L5.92834 32.5875L9.69304 39.6463L14.8809 36.8795L11.1162 29.8207ZM5.41069 32.9169L4.02727 33.9545L8.82727 40.3545L10.2107 39.3169L5.41069 32.9169ZM10.4053 37.5732L11.7887 24.4307L3.83267 23.5933L2.44925 36.7357L10.4053 37.5732ZM11.8107 10.8695V10.7785H3.81069V10.8695H11.8107ZM11.8107 10.7785V9.4861H3.81069V10.7785H11.8107ZM10.2107 6.2861L8.82727 5.24853L4.02727 11.6485L5.41069 12.6861L10.2107 6.2861ZM2.98785 10.4907L4.37127 12.8207L11.2501 8.73635L9.86669 6.40638L2.98785 10.4907ZM4.37127 12.8207L4.45395 12.9599L11.3328 8.87558L11.2501 8.73634L4.37127 12.8207ZM4.45395 12.9599L9.55909 21.558L16.4379 17.4737L11.3328 8.87559L4.45395 12.9599ZM11.4601 23.2082L19.7606 26.6667L22.8375 19.2821L14.537 15.8236L11.4601 23.2082ZM18.4706 25.8029L20.5457 27.878L26.2026 22.2211L24.1275 20.146L18.4706 25.8029ZM22.404 21.169L14.1035 23.2441L16.0438 31.0053L24.3443 28.9301L22.404 21.169ZM12.8548 23.7965L8.70458 26.5633L13.1422 33.2197L17.2924 30.4529L12.8548 23.7965ZM7.49341 27.8335L5.41828 31.2921L12.2782 35.4081L14.3534 31.9495L7.49341 27.8335ZM12.6796 34.4995L15.7923 24.1238L8.12964 21.825L5.01695 32.2007L12.6796 34.4995ZM15.7923 21.825L14.7547 18.3665L7.09208 20.6653L8.12964 24.1238L15.7923 21.825ZM8.09496 22.3443L13.6286 27.878L19.2855 22.2211L13.7518 16.6875L8.09496 22.3443ZM0.0062878 4.2976L5.66738e-08 41.65L8 41.6513L8.00629 4.29895L0.0062878 4.2976ZM2.15656 7.44966L33.9752 26.1258L38.0248 19.2265L6.20616 0.550337L2.15656 7.44966ZM33.9752 19.823L2.15655 38.4992L6.20616 45.3985L38.0248 26.7224L33.9752 19.823ZM11.8107 24.012V10.8695H3.81069V24.012H11.8107Z" fill="#F8F4F1"/>
</svg>
